<svg xmlns="http://www.w3.org/2000/svg" viewBox="0 0 32 32" fill="none">
  <rect width="32" height="32" rx="8" fill="url(#g)"/>
  <path d="M16 7c-2.5 0-4.5 1.2-5.5 3-.7 1.3-1 2.8-1 4.5 0 1.5.3 3 .8 4.2l3.2 6.8c.3.7 1 1 1.7 1h1.6c.7 0 1.4-.4 1.7-1l3.2-6.8c.5-1.2.8-2.7.8-4.2 0-1.7-.3-3.2-1-4.5C20.5 8.2 18.5 7 16 7z" fill="white" opacity=".9"/>
  <circle cx="13.5" cy="14" r="1.2" fill="#6366f1"/>
  <circle cx="18.5" cy="14" r="1.2" fill="#6366f1"/>
  <defs>
    <linearGradient id="g" x1="0" y1="0" x2="32" y2="32">
      <stop stop-color="#6366f1"/>
      <stop offset="1" stop-color="#4f46e5"/>
    </linearGradient>
  </defs>
</svg>
